<svg width="80" height="80" viewBox="0 0 80 80" fill="none" xmlns="http://www.w3.org/2000/svg">
<path d="M18.3206 40.0012C18.3206 42.4303 17.3555 44.7599 15.6376 46.4776C13.9197 48.1952 11.5898 49.1602 9.16031 49.1602C6.73084 49.1602 4.40088 48.1952 2.68299 46.4776C0.965101 44.7599 3.42133e-07 42.4303 3.42133e-07 40.0012C-0.00032848 38.7982 0.236367 37.6069 0.696568 36.4954C1.15677 35.3839 1.83146 34.3739 2.68211 33.5231C3.53275 32.6723 4.54269 31.9975 5.65423 31.537C6.76577 31.0766 7.95715 30.8396 9.16031 30.8396C10.3635 30.8396 11.5548 31.0766 12.6664 31.537C13.7779 31.9975 14.7879 32.6723 15.6385 33.5231C16.4891 34.3739 17.1638 35.3839 17.624 36.4954C18.0842 37.6069 18.3209 38.7982 18.3206 40.0012Z" fill="#FF6412"/>
<path d="M79.9999 40.0012C79.9999 42.4299 79.0352 44.7591 77.3178 46.4767C75.6005 48.1943 73.2712 49.1595 70.8421 49.1602C68.4124 49.1602 66.0822 48.1953 64.3639 46.4777C62.6456 44.7602 61.68 42.4305 61.6793 40.0012C61.679 38.7979 61.9158 37.6065 62.3761 36.4948C62.8365 35.3831 63.5114 34.373 64.3623 33.5222C65.2132 32.6714 66.2235 31.9966 67.3353 31.5363C68.4471 31.076 69.6388 30.8393 70.8421 30.8396C72.0451 30.8399 73.2362 31.0772 74.3474 31.5378C75.4587 31.9983 76.4683 32.6733 77.3187 33.524C78.1691 34.3747 78.8436 35.3846 79.3036 36.4959C79.7637 37.6073 80.0003 38.7984 79.9999 40.0012Z" fill="#FF6412"/>
<path d="M40.0013 61.6794C42.4304 61.6794 44.7601 62.6445 46.4777 64.3624C48.1954 66.0803 49.1603 68.4102 49.1603 70.8397C49.1603 73.2692 48.1954 75.5991 46.4777 77.317C44.7601 79.0349 42.4304 80 40.0013 80C38.7983 80.0003 37.607 79.7636 36.4955 79.3034C35.384 78.8432 34.374 78.1685 33.5232 77.3179C32.6725 76.4672 31.9976 75.4573 31.5372 74.3458C31.0767 73.2342 30.8397 72.0429 30.8397 70.8397C30.8397 69.6365 31.0767 68.4452 31.5372 67.3336C31.9976 66.2221 32.6725 65.2121 33.5232 64.3615C34.374 63.5109 35.384 62.8362 36.4955 62.376C37.607 61.9158 38.7983 61.6791 40.0013 61.6794Z" fill="#FF6412"/>
<path d="M40.0013 -5.57136e-05C42.43 -5.58197e-05 44.7592 0.964698 46.4768 2.68205C48.1944 4.3994 49.1597 6.72871 49.1603 9.15774C49.1603 11.5874 48.1954 13.9177 46.4779 15.6359C44.7603 17.3542 42.4306 18.3199 40.0013 18.3206C38.7981 18.3209 37.6066 18.0841 36.4949 17.6237C35.3832 17.1634 34.3731 16.4885 33.5223 15.6376C32.6716 14.7867 31.9967 13.7764 31.5364 12.6646C31.0761 11.5528 30.8394 10.3611 30.8397 9.15775C30.8401 7.9548 31.0773 6.76369 31.5379 5.65244C31.9985 4.54119 32.6734 3.53154 33.5241 2.68116C34.3748 1.83078 35.3847 1.15631 36.4961 0.69627C37.6074 0.236225 38.7985 -0.000383725 40.0013 -5.57136e-05Z" fill="#FF6412"/>
</svg>
