<svg width="100" height="136" viewBox="0 0 100 136" fill="none" xmlns="http://www.w3.org/2000/svg">
<path d="M22.0872 32.1235C28.0558 46.6659 35.2804 55.8614 39.0854 60.1638C39.2944 60.3993 39.5699 60.5658 39.8756 60.6413C40.1812 60.7167 40.5026 60.6976 40.7971 60.5864C41.0917 60.4752 41.3455 60.2771 41.525 60.0185C41.7045 59.7598 41.8013 59.4528 41.8024 59.138C41.849 50.8036 40.8698 41.2724 38.5912 30.3578C38.5912 30.3578 34.5499 10.2602 22.2426 0.35283C22.0311 0.179238 21.7775 0.0645599 21.5075 0.0203872C21.2374 -0.0237855 20.9605 0.00411262 20.7047 0.101262C20.4489 0.198411 20.2233 0.361368 20.0506 0.573663C19.878 0.785958 19.7644 1.04007 19.7215 1.3103C18.8231 6.80956 17.3185 20.5219 22.0872 32.1235Z" fill="#7A731D"/>
<path d="M77.9159 32.1235C71.9472 46.6659 64.7196 55.8614 60.9145 60.1638C60.7056 60.3993 60.4301 60.5658 60.1244 60.6412C59.8187 60.7167 59.4974 60.6975 59.2028 60.5863C58.9083 60.4751 58.6545 60.2771 58.475 60.0184C58.2955 59.7598 58.1987 59.4527 58.1976 59.1379C58.154 50.8035 59.1302 41.2723 61.4119 30.3578C61.4119 30.3578 65.4532 10.2601 77.7605 0.352777C77.972 0.179981 78.2253 0.0659772 78.4949 0.0222477C78.7646 -0.0214819 79.0409 0.00660706 79.2962 0.103685C79.5515 0.200764 79.7768 0.363403 79.9492 0.575223C80.1216 0.787043 80.2352 1.04056 80.2785 1.31025C81.1769 6.8095 82.6908 20.5219 77.9159 32.1235Z" fill="#7A731D"/>
<path d="M26.7004 113.011L73.3026 113.03C73.3618 113.029 73.4194 113.05 73.4642 113.088C73.509 113.127 73.5379 113.181 73.5452 113.24C73.5526 113.299 73.5379 113.358 73.504 113.406C73.4701 113.455 73.4194 113.489 73.3617 113.503C70.6314 114.164 68.052 115.34 65.761 116.966C61.4368 120.074 57.2929 125.589 56.6836 135.406C56.6792 135.453 56.6613 135.497 56.6323 135.533C56.6032 135.569 56.5642 135.596 56.52 135.611C56.4758 135.625 56.4284 135.627 56.3835 135.615C56.3385 135.603 56.2981 135.578 56.2671 135.543C55.1821 134.091 52.1294 129.795 50.5191 125.285C50.5032 125.237 50.4727 125.196 50.4319 125.166C50.3912 125.137 50.3423 125.121 50.2922 125.121C50.242 125.121 50.1931 125.137 50.1524 125.166C50.1117 125.196 50.0812 125.237 50.0652 125.285C48.9088 129.267 45.4333 133.989 44.2551 135.543C44.2255 135.582 44.1847 135.611 44.1383 135.626C44.0919 135.641 44.042 135.641 43.9953 135.627C43.9487 135.613 43.9075 135.584 43.8772 135.546C43.847 135.508 43.8292 135.461 43.8261 135.413C43.2044 125.599 39.0823 120.074 34.7643 116.972C32.0909 115.048 28.8361 114.003 26.6569 113.478C26.6045 113.461 26.5593 113.428 26.5289 113.382C26.4985 113.336 26.4846 113.282 26.4897 113.227C26.4948 113.172 26.5186 113.121 26.5569 113.082C26.5953 113.043 26.6459 113.018 26.7004 113.011Z" fill="#7A731D"/>
<path d="M60.4607 76.0709C56.7583 77.3673 52.8631 79.4687 50.2705 82.8541C50.2415 82.8921 50.2041 82.9229 50.1612 82.9441C50.1184 82.9653 50.0712 82.9764 50.0234 82.9764C49.9755 82.9764 49.9283 82.9653 49.8855 82.9441C49.8426 82.9229 49.8052 82.8921 49.7762 82.8541C47.1618 79.4532 43.248 77.3455 39.5176 76.0492C37.1833 75.2845 34.805 74.6617 32.3956 74.184C32.3131 74.184 32.2341 74.1512 32.1758 74.0929C32.1175 74.0346 32.0847 73.9556 32.0847 73.8731C32.0847 73.7907 32.1175 73.7116 32.1758 73.6533C32.2341 73.595 32.3131 73.5622 32.3956 73.5622C34.4411 73.211 37.8948 72.5208 40.4782 71.5229C43.8977 70.2049 47.367 68.1842 49.7513 65.0818C49.7804 65.0437 49.8177 65.0129 49.8606 64.9917C49.9035 64.9705 49.9507 64.9595 49.9985 64.9595C50.0463 64.9595 50.0935 64.9705 50.1364 64.9917C50.1792 65.0129 50.2166 65.0437 50.2456 65.0818C52.6082 68.1594 56.0495 70.1769 59.4442 71.4981C62.0368 72.5053 65.5217 73.2016 67.5672 73.5591C67.6496 73.5591 67.7287 73.5919 67.787 73.6502C67.8453 73.7085 67.8781 73.7876 67.8781 73.87C67.8781 73.9525 67.8453 74.0315 67.787 74.0898C67.7287 74.1481 67.6496 74.1809 67.5672 74.1809C65.1634 74.6711 62.7905 75.3022 60.4607 76.0709V76.0709Z" fill="#7A731D"/>
<path d="M60.4607 99.7218C56.7583 101.021 52.8631 103.12 50.2705 106.505C50.2415 106.543 50.2041 106.574 50.1612 106.595C50.1184 106.616 50.0712 106.627 50.0234 106.627C49.9755 106.627 49.9283 106.616 49.8855 106.595C49.8426 106.574 49.8052 106.543 49.7762 106.505C47.1618 103.104 43.248 100.996 39.5176 99.7001C37.1833 98.9356 34.805 98.3127 32.3956 97.8349C32.3131 97.8349 32.2341 97.8021 32.1758 97.7438C32.1175 97.6855 32.0847 97.6064 32.0847 97.524C32.0847 97.4415 32.1175 97.3625 32.1758 97.3042C32.2341 97.2459 32.3131 97.2131 32.3956 97.2131C34.4411 96.8618 37.8948 96.1717 40.4782 95.1738C43.8977 93.8558 47.367 91.832 49.7513 88.7326C49.7804 88.6946 49.8177 88.6638 49.8606 88.6426C49.9035 88.6214 49.9507 88.6104 49.9985 88.6104C50.0463 88.6104 50.0935 88.6214 50.1364 88.6426C50.1792 88.6638 50.2166 88.6946 50.2456 88.7326C52.6082 91.8102 56.0495 93.8278 59.4442 95.1458C62.0368 96.1531 65.5217 96.8525 67.5672 97.21C67.6496 97.21 67.7287 97.2428 67.787 97.3011C67.8453 97.3594 67.8781 97.4384 67.8781 97.5209C67.8781 97.6033 67.8453 97.6824 67.787 97.7407C67.7287 97.799 67.6496 97.8317 67.5672 97.8317C65.1633 98.3218 62.7904 98.9529 60.4607 99.7218V99.7218Z" fill="#7A731D"/>
<path d="M22.7493 68.4515C22.7493 71.4682 21.5509 74.3614 19.4178 76.4946C17.2846 78.6278 14.3914 79.8262 11.3747 79.8262C8.35791 79.8262 5.46472 78.6278 3.33156 76.4946C1.1984 74.3614 4.24838e-07 71.4682 4.24838e-07 68.4515V68.4515C-0.000407884 66.9575 0.293505 65.478 0.864952 64.0976C1.4364 62.7173 2.27419 61.463 3.33046 60.4064C4.38674 59.3498 5.64081 58.5117 7.02105 57.9399C8.40129 57.368 9.88066 57.0737 11.3747 57.0737V57.0737C12.8687 57.0737 14.348 57.368 15.7283 57.9399C17.1085 58.5117 18.3626 59.3498 19.4189 60.4064C20.4751 61.463 21.3129 62.7173 21.8844 64.0976C22.4558 65.478 22.7497 66.9575 22.7493 68.4515Z" fill="#7A731D"/>
<path d="M100 68.4515C100 71.4677 98.802 74.3604 96.6695 76.4935C94.537 78.6266 91.6446 79.8253 88.6284 79.8262V79.8262C85.6114 79.8262 82.7179 78.6279 80.5842 76.4948C78.4506 74.3617 77.2515 71.4685 77.2507 68.4515V68.4515C77.2503 66.9572 77.5443 65.4775 78.1159 64.0969C78.6876 62.7163 79.5256 61.4619 80.5822 60.4053C81.6388 59.3487 82.8933 58.5106 84.2739 57.939C85.6545 57.3673 87.1342 57.0733 88.6284 57.0737V57.0737C90.1222 57.0741 91.6012 57.3688 92.9811 57.9408C94.361 58.5128 95.6147 59.351 96.6706 60.4075C97.7266 61.464 98.5641 62.7182 99.1353 64.0984C99.7066 65.4786 100 66.9578 100 68.4515V68.4515Z" fill="#7A731D"/>
</svg>
