<svg width="60" height="60" viewBox="0 0 60 60" fill="none" xmlns="http://www.w3.org/2000/svg">
<path d="M52.7291 18.3642V6.96502H41.277V0H18.2904V7.30453H6.85891V18.6214H0V41.5535H7.08548V52.8704H18.414V60H41.2667C41.38 57.572 41.4933 55.3601 41.6272 52.7984H52.9557V41.3272H60V18.3642H52.7291ZM42.4305 32.7675L40.9578 32.9424C40.6924 33.866 40.3082 34.7513 39.8146 35.5761C40.1442 35.9671 40.4634 36.3683 40.7724 36.7695C43.43 40.1187 45.7192 43.7438 47.6004 47.5823C43.758 45.703 40.1291 43.4162 36.7765 40.7613L35.5716 39.8045C34.754 40.3041 33.8746 40.695 32.9557 40.9671C32.9557 41.4609 32.8424 41.9959 32.7806 42.4486C32.292 46.6933 31.3494 50.8736 29.9691 54.9177C28.5804 50.8753 27.6343 46.6945 27.1473 42.4486C27.0855 41.9547 27.0237 41.4198 26.9722 40.9774C26.0509 40.7122 25.1681 40.3284 24.346 39.8354C23.9444 40.1749 23.5427 40.4938 23.1411 40.8025C19.8064 43.4589 16.1906 45.7428 12.3584 47.6132C14.2372 43.7734 16.5265 40.148 19.1864 36.8004C19.4954 36.3992 19.8146 35.9979 20.1442 35.607C19.6507 34.7858 19.2664 33.9039 19.001 32.9835L17.5077 32.8086C13.2458 32.3251 9.04981 31.3763 4.99485 29.9794C9.04981 28.5825 13.2458 27.6338 17.5077 27.1502L18.9598 26.9753C19.2151 26.0465 19.5962 25.1569 20.0927 24.3313C19.7631 23.9403 19.4645 23.5494 19.1555 23.1584C16.5064 19.8094 14.2275 16.1841 12.3584 12.3457C16.2085 14.2128 19.8417 16.4967 23.1926 19.1564C23.5839 19.4547 23.965 19.7634 24.346 20.0823C25.1819 19.5854 26.0784 19.1981 27.0134 18.93C27.0752 18.4568 27.1267 17.9835 27.1885 17.5103C27.6575 13.2651 28.5899 9.08382 29.9691 5.04115C31.3596 9.07656 32.3091 13.2503 32.8012 17.4897C32.863 17.963 32.9145 18.4362 32.966 18.9095C33.9048 19.1759 34.8049 19.5632 35.6437 20.0617C36.0247 19.7428 36.4058 19.4444 36.7971 19.1461C40.1507 16.4983 43.7795 14.2184 47.621 12.3457C45.7398 16.1841 43.4506 19.8093 40.793 23.1584C40.4943 23.5494 40.1854 23.93 39.8661 24.3107C40.3642 25.1477 40.7487 26.0473 41.0093 26.9856L42.4511 27.1605C46.7006 27.652 50.8851 28.597 54.9331 29.9794C50.8851 31.3618 46.7006 32.3068 42.4511 32.7984L42.4305 32.7675Z" fill="#FF6412"/>
</svg>
