<svg width="3266" height="333" viewBox="0 0 3266 333" fill="none" xmlns="http://www.w3.org/2000/svg">
<path d="M219.042 78.39C240.427 86.58 262.722 94.315 286.382 94.315C317.322 94.315 356.907 83.395 356.907 47.45C356.907 16.055 324.602 0.129979 295.027 0.129979C253.622 0.129979 225.867 28.795 209.942 58.37C181.732 46.54 143.512 32.89 105.292 32.89C46.5973 32.89 0.187344 70.2 0.187344 128.44C0.187344 148.005 10.1973 162.11 25.6673 162.11C42.5023 162.11 47.9623 149.37 47.9623 149.37C40.2273 134.81 36.5873 120.705 36.5873 108.42C36.5873 73.385 60.7023 49.725 105.292 49.725C142.602 49.725 171.267 59.735 203.117 72.475C196.292 87.035 190.832 101.595 187.647 112.97C179.912 105.235 163.987 92.95 138.507 92.95C96.1923 92.95 71.6224 128.895 71.6224 168.025C71.6224 265.395 156.252 332.28 244.522 332.28C291.842 332.28 342.802 318.63 342.802 275.405C342.802 261.3 332.792 248.105 315.957 248.105C305.947 248.105 295.027 253.11 289.112 265.85C300.487 269.945 305.947 280.41 305.947 291.785C305.947 303.615 297.302 314.535 276.372 314.535C254.077 314.535 241.792 289.965 241.792 272.22C241.792 218.985 327.787 223.535 327.787 160.29C327.787 130.715 302.762 113.425 275.007 113.425C219.042 113.425 204.027 159.38 204.027 205.335C204.027 244.01 215.402 282.23 221.317 293.15L218.587 294.06C201.297 265.395 192.652 232.18 192.652 195.78C192.652 154.83 203.117 113.425 219.042 78.39ZM291.842 17.875C314.592 17.875 330.972 29.705 330.972 47.45C330.972 70.2 305.037 77.025 286.382 77.025C265.907 77.025 248.162 72.93 225.867 64.285C240.882 38.805 261.812 17.875 291.842 17.875ZM682.193 166.205C698.573 158.47 715.408 135.72 715.408 113.425C715.408 82.94 695.388 59.735 668.998 45.63C657.623 21.06 633.508 0.129979 602.568 0.129979C581.638 0.129979 563.438 10.595 550.698 26.975C538.413 10.595 519.758 0.129979 499.283 0.129979C468.343 0.129979 444.228 21.06 432.853 45.63C406.463 59.735 386.443 82.94 386.443 113.425C386.443 135.72 403.278 158.47 419.658 166.205C403.278 173.94 386.443 196.69 386.443 218.985C386.443 249.47 406.463 272.675 432.853 286.78C444.228 311.35 468.343 332.28 499.283 332.28C519.758 332.28 538.413 321.815 550.698 305.435C563.438 321.815 581.638 332.28 602.568 332.28C633.508 332.28 657.623 311.35 668.998 286.78C695.388 272.675 715.408 249.47 715.408 218.985C715.408 196.69 698.573 173.94 682.193 166.205ZM499.283 24.7C473.348 24.7 459.243 41.99 450.143 63.83C431.488 70.655 411.013 85.67 411.013 113.425C411.013 138.45 436.948 156.65 459.243 156.65C477.443 156.65 492.913 148.915 510.203 148.915C521.578 148.915 531.588 151.19 538.868 153.465C536.593 146.185 534.773 137.085 534.773 125.71C534.773 106.6 542.963 90.675 542.963 73.84C542.963 49.725 523.398 24.7 499.283 24.7ZM552.063 148.005C553.883 141.635 555.248 134.355 555.248 125.71C555.248 116.61 552.973 107.51 550.698 100.685C548.878 107.51 546.603 116.61 546.603 125.71C546.603 134.355 548.423 141.635 550.243 148.005H552.063ZM532.043 164.84C526.583 163.475 518.848 161.655 510.203 161.655C500.648 161.655 491.548 163.93 484.723 165.75C492.003 168.025 500.648 170.3 510.203 170.3C518.848 170.3 526.583 168.48 532.043 167.115V164.84ZM602.568 24.7C577.998 24.7 558.888 49.725 558.888 73.84C558.888 90.675 567.078 106.6 567.078 125.71C567.078 137.085 565.258 146.185 562.528 153.465C569.808 151.19 580.273 148.915 591.648 148.915C608.483 148.915 623.953 156.65 642.608 156.65C664.903 156.65 690.838 138.45 690.838 113.425C690.838 85.67 670.363 70.655 651.708 63.83C642.608 41.99 628.503 24.7 602.568 24.7ZM499.283 307.71C523.398 307.71 542.963 282.685 542.963 258.57C542.963 241.735 534.773 225.81 534.773 206.7C534.773 195.325 536.593 186.225 538.868 178.945C531.588 181.22 521.578 183.495 510.203 183.495C492.913 183.495 477.443 175.76 459.243 175.76C436.948 175.76 411.013 193.96 411.013 218.985C411.013 246.74 431.488 261.755 450.143 268.58C459.243 290.42 473.348 307.71 499.283 307.71ZM550.243 184.405C548.423 190.775 546.603 198.055 546.603 206.7C546.603 215.8 548.878 224.9 550.698 231.725C552.973 224.9 555.248 215.8 555.248 206.7C555.248 198.055 553.883 190.775 552.063 184.405H550.243ZM661.263 166.205C684.468 175.305 703.123 194.87 703.123 218.985C703.123 248.56 681.738 267.215 660.353 277.225C647.613 306.8 625.773 319.995 602.568 319.995C578.908 319.995 558.433 302.25 550.698 281.32C543.418 302.25 522.943 319.995 499.283 319.995C476.078 319.995 454.238 306.8 441.498 277.225C419.658 267.215 398.728 248.56 398.728 218.985C398.728 194.87 417.383 175.305 440.588 166.205C417.383 157.105 398.728 137.54 398.728 113.425C398.728 83.85 419.658 65.195 441.498 55.185C454.238 25.61 476.078 12.415 499.283 12.415C522.943 12.415 543.418 30.16 550.698 51.09C558.433 30.16 578.908 12.415 602.568 12.415C625.773 12.415 647.613 25.61 660.353 55.185C681.738 65.195 703.123 83.85 703.123 113.425C703.123 137.54 684.468 157.105 661.263 166.205ZM602.568 307.71C628.503 307.71 642.608 290.42 651.708 268.58C670.363 261.755 690.838 246.74 690.838 218.985C690.838 193.96 664.903 175.76 642.608 175.76C623.953 175.76 608.483 183.495 591.648 183.495C580.273 183.495 569.808 181.22 562.528 178.945C565.258 186.225 567.078 195.325 567.078 206.7C567.078 225.81 558.888 241.735 558.888 258.57C558.888 282.685 577.998 307.71 602.568 307.71ZM569.808 167.115C575.268 168.48 583.003 170.3 591.648 170.3C600.748 170.3 609.848 168.025 616.673 165.75C609.848 163.93 600.748 161.655 591.648 161.655C583.003 161.655 575.268 163.475 569.808 164.84V167.115ZM543.418 165.295C543.418 168.935 547.058 172.575 550.698 172.575C554.338 172.575 557.978 168.935 557.978 165.295C557.978 161.655 554.338 158.015 550.698 158.015C547.058 158.015 543.418 161.655 543.418 165.295ZM918.694 92.04L921.424 146.185H930.069C933.709 95.68 945.084 59.28 971.474 36.985C971.474 30.615 965.559 23.79 956.459 23.79C947.814 23.79 938.259 29.705 932.344 37.44C932.344 21.06 925.064 5.135 915.054 0.129979C905.499 5.135 898.219 21.06 898.219 37.44C892.304 29.705 882.749 23.79 873.649 23.79C865.004 23.79 859.089 30.615 859.089 36.985C885.479 59.28 896.854 95.68 900.494 146.185H909.139L911.869 92.04H918.694ZM911.869 240.37L909.139 186.225H900.494C896.854 236.73 885.479 273.13 859.089 295.425C859.089 301.795 865.004 308.62 873.649 308.62C882.749 308.62 892.304 302.705 898.219 294.97C898.219 311.35 905.499 327.275 915.054 332.28C925.064 327.275 932.344 311.35 932.344 294.97C938.259 302.705 947.814 308.62 956.459 308.62C965.559 308.62 971.474 301.795 971.474 295.425C945.084 273.13 933.709 236.73 930.069 186.225H921.424L918.694 240.37H911.869ZM840.889 163.02L895.034 160.29V151.645C844.529 148.005 808.129 136.63 785.834 110.24C779.464 110.24 772.639 116.155 772.639 124.8C772.639 133.9 778.554 143.455 786.289 149.825C769.909 149.825 753.984 156.65 748.979 166.205C753.984 176.215 769.909 183.495 786.289 183.495C778.554 189.41 772.639 198.965 772.639 207.61C772.639 216.71 779.464 222.625 785.834 222.625C808.129 196.235 844.529 184.86 895.034 181.22V172.575L840.889 169.845V163.02ZM989.219 169.845L935.074 172.575V181.22C985.579 184.86 1021.98 196.235 1044.27 222.625C1050.64 222.625 1057.47 216.71 1057.47 207.61C1057.47 198.965 1051.55 189.41 1043.82 183.495C1060.2 183.495 1076.12 176.215 1081.13 166.205C1076.12 156.65 1060.2 149.825 1043.82 149.825C1051.55 143.455 1057.47 133.9 1057.47 124.8C1057.47 116.155 1050.64 110.24 1044.27 110.24C1021.98 136.63 985.579 148.005 935.074 151.645V160.29L989.219 163.02V169.845ZM909.139 166.205C909.139 169.39 912.324 172.575 915.054 172.575C918.239 172.575 921.424 169.39 921.424 166.205C921.424 163.475 918.239 160.29 915.054 160.29C912.324 160.29 909.139 163.475 909.139 166.205ZM1441.84 332.28C1556.5 332.28 1617.93 249.015 1617.93 158.925C1617.93 59.28 1548.31 0.129979 1462.77 0.129979C1427.74 0.129979 1397.71 8.31998 1373.14 21.515C1349.02 7.40999 1321.27 0.129979 1291.24 0.129979C1176.58 0.129979 1115.15 83.395 1115.15 173.485C1115.15 273.13 1184.77 332.28 1270.31 332.28C1305.34 332.28 1334.92 324.545 1359.94 311.35C1383.6 325 1411.81 332.28 1441.84 332.28ZM1271.22 17.875C1297.15 17.875 1321.72 26.52 1342.65 42.445C1305.8 75.205 1286.69 123.435 1286.69 173.485C1286.69 229.905 1308.53 273.13 1343.11 299.975C1328.09 309.53 1310.35 314.535 1289.42 314.535C1223.44 314.535 1162.93 258.57 1162.93 159.835C1162.93 79.755 1200.24 17.875 1271.22 17.875ZM1442.75 17.875C1509.64 17.875 1570.15 73.84 1570.15 172.575C1570.15 252.655 1532.84 314.535 1460.95 314.535C1435.47 314.535 1410.9 306.345 1389.97 290.42C1427.28 257.66 1446.39 209.43 1446.39 158.925C1446.39 102.96 1424.1 59.735 1389.52 32.435C1404.53 23.335 1422.28 17.875 1442.75 17.875ZM1398.62 172.575C1398.62 212.16 1389.52 247.195 1371.32 272.675C1349.02 246.285 1334.46 208.52 1334.46 159.835C1334.46 120.25 1343.56 85.215 1361.31 59.735C1384.06 86.125 1398.62 124.345 1398.62 172.575ZM1866.64 78.39C1888.03 86.58 1910.32 94.315 1933.98 94.315C1964.92 94.315 2004.51 83.395 2004.51 47.45C2004.51 16.055 1972.2 0.129979 1942.63 0.129979C1901.22 0.129979 1873.47 28.795 1857.54 58.37C1829.33 46.54 1791.11 32.89 1752.89 32.89C1694.2 32.89 1647.79 70.2 1647.79 128.44C1647.79 148.005 1657.8 162.11 1673.27 162.11C1690.1 162.11 1695.56 149.37 1695.56 149.37C1687.83 134.81 1684.19 120.705 1684.19 108.42C1684.19 73.385 1708.3 49.725 1752.89 49.725C1790.2 49.725 1818.87 59.735 1850.72 72.475C1843.89 87.035 1838.43 101.595 1835.25 112.97C1827.51 105.235 1811.59 92.95 1786.11 92.95C1743.79 92.95 1719.22 128.895 1719.22 168.025C1719.22 265.395 1803.85 332.28 1892.12 332.28C1939.44 332.28 1990.4 318.63 1990.4 275.405C1990.4 261.3 1980.39 248.105 1963.56 248.105C1953.55 248.105 1942.63 253.11 1936.71 265.85C1948.09 269.945 1953.55 280.41 1953.55 291.785C1953.55 303.615 1944.9 314.535 1923.97 314.535C1901.68 314.535 1889.39 289.965 1889.39 272.22C1889.39 218.985 1975.39 223.535 1975.39 160.29C1975.39 130.715 1950.36 113.425 1922.61 113.425C1866.64 113.425 1851.63 159.38 1851.63 205.335C1851.63 244.01 1863 282.23 1868.92 293.15L1866.19 294.06C1848.9 265.395 1840.25 232.18 1840.25 195.78C1840.25 154.83 1850.72 113.425 1866.64 78.39ZM1939.44 17.875C1962.19 17.875 1978.57 29.705 1978.57 47.45C1978.57 70.2 1952.64 77.025 1933.98 77.025C1913.51 77.025 1895.76 72.93 1873.47 64.285C1888.48 38.805 1909.41 17.875 1939.44 17.875ZM2329.79 166.205C2346.17 158.47 2363.01 135.72 2363.01 113.425C2363.01 82.94 2342.99 59.735 2316.6 45.63C2305.22 21.06 2281.11 0.129979 2250.17 0.129979C2229.24 0.129979 2211.04 10.595 2198.3 26.975C2186.01 10.595 2167.36 0.129979 2146.88 0.129979C2115.94 0.129979 2091.83 21.06 2080.45 45.63C2054.06 59.735 2034.04 82.94 2034.04 113.425C2034.04 135.72 2050.88 158.47 2067.26 166.205C2050.88 173.94 2034.04 196.69 2034.04 218.985C2034.04 249.47 2054.06 272.675 2080.45 286.78C2091.83 311.35 2115.94 332.28 2146.88 332.28C2167.36 332.28 2186.01 321.815 2198.3 305.435C2211.04 321.815 2229.24 332.28 2250.17 332.28C2281.11 332.28 2305.22 311.35 2316.6 286.78C2342.99 272.675 2363.01 249.47 2363.01 218.985C2363.01 196.69 2346.17 173.94 2329.79 166.205ZM2146.88 24.7C2120.95 24.7 2106.84 41.99 2097.74 63.83C2079.09 70.655 2058.61 85.67 2058.61 113.425C2058.61 138.45 2084.55 156.65 2106.84 156.65C2125.04 156.65 2140.51 148.915 2157.8 148.915C2169.18 148.915 2179.19 151.19 2186.47 153.465C2184.19 146.185 2182.37 137.085 2182.37 125.71C2182.37 106.6 2190.56 90.675 2190.56 73.84C2190.56 49.725 2171 24.7 2146.88 24.7ZM2199.66 148.005C2201.48 141.635 2202.85 134.355 2202.85 125.71C2202.85 116.61 2200.57 107.51 2198.3 100.685C2196.48 107.51 2194.2 116.61 2194.2 125.71C2194.2 134.355 2196.02 141.635 2197.84 148.005H2199.66ZM2179.64 164.84C2174.18 163.475 2166.45 161.655 2157.8 161.655C2148.25 161.655 2139.15 163.93 2132.32 165.75C2139.6 168.025 2148.25 170.3 2157.8 170.3C2166.45 170.3 2174.18 168.48 2179.64 167.115V164.84ZM2250.17 24.7C2225.6 24.7 2206.49 49.725 2206.49 73.84C2206.49 90.675 2214.68 106.6 2214.68 125.71C2214.68 137.085 2212.86 146.185 2210.13 153.465C2217.41 151.19 2227.87 148.915 2239.25 148.915C2256.08 148.915 2271.55 156.65 2290.21 156.65C2312.5 156.65 2338.44 138.45 2338.44 113.425C2338.44 85.67 2317.96 70.655 2299.31 63.83C2290.21 41.99 2276.1 24.7 2250.17 24.7ZM2146.88 307.71C2171 307.71 2190.56 282.685 2190.56 258.57C2190.56 241.735 2182.37 225.81 2182.37 206.7C2182.37 195.325 2184.19 186.225 2186.47 178.945C2179.19 181.22 2169.18 183.495 2157.8 183.495C2140.51 183.495 2125.04 175.76 2106.84 175.76C2084.55 175.76 2058.61 193.96 2058.61 218.985C2058.61 246.74 2079.09 261.755 2097.74 268.58C2106.84 290.42 2120.95 307.71 2146.88 307.71ZM2197.84 184.405C2196.02 190.775 2194.2 198.055 2194.2 206.7C2194.2 215.8 2196.48 224.9 2198.3 231.725C2200.57 224.9 2202.85 215.8 2202.85 206.7C2202.85 198.055 2201.48 190.775 2199.66 184.405H2197.84ZM2308.86 166.205C2332.07 175.305 2350.72 194.87 2350.72 218.985C2350.72 248.56 2329.34 267.215 2307.95 277.225C2295.21 306.8 2273.37 319.995 2250.17 319.995C2226.51 319.995 2206.03 302.25 2198.3 281.32C2191.02 302.25 2170.54 319.995 2146.88 319.995C2123.68 319.995 2101.84 306.8 2089.1 277.225C2067.26 267.215 2046.33 248.56 2046.33 218.985C2046.33 194.87 2064.98 175.305 2088.19 166.205C2064.98 157.105 2046.33 137.54 2046.33 113.425C2046.33 83.85 2067.26 65.195 2089.1 55.185C2101.84 25.61 2123.68 12.415 2146.88 12.415C2170.54 12.415 2191.02 30.16 2198.3 51.09C2206.03 30.16 2226.51 12.415 2250.17 12.415C2273.37 12.415 2295.21 25.61 2307.95 55.185C2329.34 65.195 2350.72 83.85 2350.72 113.425C2350.72 137.54 2332.07 157.105 2308.86 166.205ZM2250.17 307.71C2276.1 307.71 2290.21 290.42 2299.31 268.58C2317.96 261.755 2338.44 246.74 2338.44 218.985C2338.44 193.96 2312.5 175.76 2290.21 175.76C2271.55 175.76 2256.08 183.495 2239.25 183.495C2227.87 183.495 2217.41 181.22 2210.13 178.945C2212.86 186.225 2214.68 195.325 2214.68 206.7C2214.68 225.81 2206.49 241.735 2206.49 258.57C2206.49 282.685 2225.6 307.71 2250.17 307.71ZM2217.41 167.115C2222.87 168.48 2230.6 170.3 2239.25 170.3C2248.35 170.3 2257.45 168.025 2264.27 165.75C2257.45 163.93 2248.35 161.655 2239.25 161.655C2230.6 161.655 2222.87 163.475 2217.41 164.84V167.115ZM2191.02 165.295C2191.02 168.935 2194.66 172.575 2198.3 172.575C2201.94 172.575 2205.58 168.935 2205.58 165.295C2205.58 161.655 2201.94 158.015 2198.3 158.015C2194.66 158.015 2191.02 161.655 2191.02 165.295ZM2566.29 92.04L2569.02 146.185H2577.67C2581.31 95.68 2592.68 59.28 2619.07 36.985C2619.07 30.615 2613.16 23.79 2604.06 23.79C2595.41 23.79 2585.86 29.705 2579.94 37.44C2579.94 21.06 2572.66 5.135 2562.65 0.129979C2553.1 5.135 2545.82 21.06 2545.82 37.44C2539.9 29.705 2530.35 23.79 2521.25 23.79C2512.6 23.79 2506.69 30.615 2506.69 36.985C2533.08 59.28 2544.45 95.68 2548.09 146.185H2556.74L2559.47 92.04H2566.29ZM2559.47 240.37L2556.74 186.225H2548.09C2544.45 236.73 2533.08 273.13 2506.69 295.425C2506.69 301.795 2512.6 308.62 2521.25 308.62C2530.35 308.62 2539.9 302.705 2545.82 294.97C2545.82 311.35 2553.1 327.275 2562.65 332.28C2572.66 327.275 2579.94 311.35 2579.94 294.97C2585.86 302.705 2595.41 308.62 2604.06 308.62C2613.16 308.62 2619.07 301.795 2619.07 295.425C2592.68 273.13 2581.31 236.73 2577.67 186.225H2569.02L2566.29 240.37H2559.47ZM2488.49 163.02L2542.63 160.29V151.645C2492.13 148.005 2455.73 136.63 2433.43 110.24C2427.06 110.24 2420.24 116.155 2420.24 124.8C2420.24 133.9 2426.15 143.455 2433.89 149.825C2417.51 149.825 2401.58 156.65 2396.58 166.205C2401.58 176.215 2417.51 183.495 2433.89 183.495C2426.15 189.41 2420.24 198.965 2420.24 207.61C2420.24 216.71 2427.06 222.625 2433.43 222.625C2455.73 196.235 2492.13 184.86 2542.63 181.22V172.575L2488.49 169.845V163.02ZM2636.82 169.845L2582.67 172.575V181.22C2633.18 184.86 2669.58 196.235 2691.87 222.625C2698.24 222.625 2705.07 216.71 2705.07 207.61C2705.07 198.965 2699.15 189.41 2691.42 183.495C2707.8 183.495 2723.72 176.215 2728.73 166.205C2723.72 156.65 2707.8 149.825 2691.42 149.825C2699.15 143.455 2705.07 133.9 2705.07 124.8C2705.07 116.155 2698.24 110.24 2691.87 110.24C2669.58 136.63 2633.18 148.005 2582.67 151.645V160.29L2636.82 163.02V169.845ZM2556.74 166.205C2556.74 169.39 2559.92 172.575 2562.65 172.575C2565.84 172.575 2569.02 169.39 2569.02 166.205C2569.02 163.475 2565.84 160.29 2562.65 160.29C2559.92 160.29 2556.74 163.475 2556.74 166.205ZM3089.44 332.28C3204.1 332.28 3265.53 249.015 3265.53 158.925C3265.53 59.28 3195.91 0.129979 3110.37 0.129979C3075.34 0.129979 3045.31 8.31998 3020.74 21.515C2996.62 7.40999 2968.87 0.129979 2938.84 0.129979C2824.18 0.129979 2762.75 83.395 2762.75 173.485C2762.75 273.13 2832.37 332.28 2917.91 332.28C2952.94 332.28 2982.52 324.545 3007.54 311.35C3031.2 325 3059.41 332.28 3089.44 332.28ZM2918.82 17.875C2944.75 17.875 2969.32 26.52 2990.25 42.445C2953.4 75.205 2934.29 123.435 2934.29 173.485C2934.29 229.905 2956.13 273.13 2990.71 299.975C2975.69 309.53 2957.95 314.535 2937.02 314.535C2871.04 314.535 2810.53 258.57 2810.53 159.835C2810.53 79.755 2847.84 17.875 2918.82 17.875ZM3090.35 17.875C3157.24 17.875 3217.75 73.84 3217.75 172.575C3217.75 252.655 3180.44 314.535 3108.55 314.535C3083.07 314.535 3058.5 306.345 3037.57 290.42C3074.88 257.66 3093.99 209.43 3093.99 158.925C3093.99 102.96 3071.7 59.735 3037.12 32.435C3052.13 23.335 3069.88 17.875 3090.35 17.875ZM3046.22 172.575C3046.22 212.16 3037.12 247.195 3018.92 272.675C2996.62 246.285 2982.06 208.52 2982.06 159.835C2982.06 120.25 2991.16 85.215 3008.91 59.735C3031.66 86.125 3046.22 124.345 3046.22 172.575Z" fill="#FF8AA8"/>
</svg>
