<svg width="166" height="166" viewBox="0 0 166 166" fill="none" xmlns="http://www.w3.org/2000/svg">
<path d="M0 79.4385L166 83.0125L0 86.5865V79.4385Z" fill="#709EBB"/>
<path d="M1.90613 101.025L163.165 61.5205L3.74078 107.935L1.90613 101.025Z" fill="#709EBB"/>
<path d="M9.33997 121.396L154.873 41.5059L12.914 127.591L9.33997 121.396Z" fill="#709EBB"/>
<path d="M21.7775 139.171L141.697 24.3027L26.8288 144.222L21.7775 139.171Z" fill="#709EBB"/>
<path d="M38.4085 153.086L124.494 11.127L44.6034 156.66L38.4085 153.086Z" fill="#709EBB"/>
<path d="M58.0654 162.236L104.48 2.83594L64.9751 164.094L58.0654 162.236Z" fill="#709EBB"/>
<path d="M79.4379 166L83.0119 0L86.5859 166H79.4379Z" fill="#709EBB"/>
<path d="M101.025 164.094L61.5203 2.83594L107.935 162.236L101.025 164.094Z" fill="#709EBB"/>
<path d="M121.397 156.66L41.506 11.127L127.592 153.086L121.397 156.66Z" fill="#709EBB"/>
<path d="M139.171 144.222L24.3032 24.3027L144.222 139.171L139.171 144.222Z" fill="#709EBB"/>
<path d="M153.086 127.591L11.127 41.5059L156.66 121.396L153.086 127.591Z" fill="#709EBB"/>
<path d="M162.235 107.935L2.83533 61.5205L164.094 101.025L162.235 107.935Z" fill="#709EBB"/>
</svg>
